<?xml version="1.0" encoding="utf-8"?>
<!-- Generator: Adobe Illustrator 25.0.1, SVG Export Plug-In . SVG Version: 6.00 Build 0)  -->
<svg width="160" version="1.1" id="katman_1" xmlns="http://www.w3.org/2000/svg" xmlns:xlink="http://www.w3.org/1999/xlink" x="0px" y="0px"
	 viewBox="0 0 1200 800" style="enable-background:new 0 0 1200 800;" xml:space="preserve">
<style type="text/css">
	.st0{clip-path:url(#SVGID_2_);}
	.st1{fill:#152649;}
</style>
<g>
	<defs>
		<rect id="SVGID_1_" x="138.46" y="294.64" width="923.08" height="210.7"/>
	</defs>
	<clipPath id="SVGID_2_">
		<use xlink:href="#SVGID_1_"  style="overflow:visible;"/>
	</clipPath>
	<g transform="translate(0 -.003)" class="st0">
		<path class="st1" d="M282.24,332.1v-36.94h36.94v36.94H282.24z M282.24,502.34V346.58h36.94v155.76L282.24,502.34z M371.6,502.34
			h-36.94V346.58h35.94v28.96c11.48-16.98,27.95-31.95,50.42-31.95c4,0,6.49,0.5,8.49,1v34.95c-2.99-0.5-8.49-0.5-10.98-0.5
			c-16.98,0-47.43,15.98-47.43,46.93v76.38L371.6,502.34z M440,502.34V295.16h66.4c17.47,0,76.88,0,76.88,50.42
			c0,34.95-26.95,43.93-40.94,48.92c15.98,3.99,45.93,12.48,45.93,50.92c0,31.45-23.46,56.91-76.88,56.91L440,502.34z
			 M478.94,379.53h27.46c35.45,0,38.44-20.97,38.44-27.96c0-25.96-26.96-25.96-34.95-25.96h-30.95V379.53z M478.94,471.89h24.46
			c25.96,0,44.43-8.49,44.43-30.95c0-14.48-7.99-31.45-41.93-31.45h-26.96V471.89z M693.11,502.34l-3.99-16.47
			c-8.98,7.99-23.96,19.97-46.93,19.97c-27.96,0-47.92-17.97-47.92-42.93c0-15.98,5.99-34.95,39.94-46.93l44.43-14.97
			c6.49-2,6.99-2.5,6.99-6.99v-6.49c0-12.98-11.98-16.97-26.46-16.97c-24.46,0-46.93,14.97-55.91,20.96v-32.45
			c9.98-5.49,28.96-16.47,61.4-16.47c48.43,0,57.91,24.46,57.91,53.91v105.34L693.11,502.34z M652.67,435.44
			c-15.48,5.49-20.97,12.98-20.97,23.96c0,15.48,13.48,18.97,19.97,18.97c5.99,0,18.97-2,33.95-17.47v-38.44c-2,1.5-3,2-9.49,4.49
			L652.67,435.44z M236.81,502.34l-3.99-16.47c-8.98,7.99-23.46,19.97-46.93,19.97c-27.96,0-47.43-17.97-47.43-42.93
			c0-15.98,5.49-34.95,39.94-46.93l44.93-14.97c6.49-2,6.99-2.5,6.99-6.99v-6.49c0-12.98-11.98-16.97-26.46-16.97
			c-24.46,0-46.93,14.97-55.91,20.96v-32.45c9.98-5.49,28.96-16.47,61.4-16.47c48.43,0,57.91,24.46,57.91,53.91v105.34
			L236.81,502.34z M196.87,435.44c-15.48,5.49-20.97,12.98-20.97,23.96c0,15.48,13.48,18.97,19.97,18.97c5.99,0,18.97-2,33.95-17.47
			v-38.44c-2,1.5-2.99,2-9.49,4.49L196.87,435.44z M738.04,502.34V295.16h36.94v207.18H738.04z M806.43,374.54h-22.46v-28.45h22.46
			v-51.42h36.94v51.42h27.95v28.45h-27.95v78.88c0,11.48,1.5,21.96,18.47,21.96c4.49,0,7.99-0.5,10.98-1v27.96
			c-4.99,0.5-9.98,1-17.47,1c-41.44,0-48.92-20.47-48.92-47.92V374.54z M885.81,332.1v-37.44h36.94v37.44H885.81z M885.81,502.34
			V346.58h36.94v155.76H885.81z M1058.04,388.51c-7.48-6.49-19.47-15.97-40.43-15.97c-31.95,0-44.93,26.46-44.93,51.92
			c0,10.98,2.99,51.92,43.93,51.92c21.47,0,34.95-9.49,44.93-16.47v32.94c-7.49,4-24.46,12.48-50.92,12.48
			c-52.92,0-75.39-39.94-75.39-81.37c0-42.94,24.46-81.38,76.88-81.38c25.46,0,39.44,7.99,45.93,11.48L1058.04,388.51z"/>
	</g>
</g>
</svg>
