<?xml version="1.0" encoding="utf-8"?>
<!-- Generator: Adobe Illustrator 25.0.1, SVG Export Plug-In . SVG Version: 6.00 Build 0)  -->
<svg width="160" version="1.0" id="katman_1" xmlns="http://www.w3.org/2000/svg" xmlns:xlink="http://www.w3.org/1999/xlink" x="0px" y="0px"
	 viewBox="0 0 560 400" style="enable-background:new 0 0 560 400;" xml:space="preserve">
<style type="text/css">
	.st0{fill:#DD052B;}
	.st1{fill-rule:evenodd;clip-rule:evenodd;fill:#DD052B;}
</style>
<g transform="matrix(1.43991 0 0 1.43991 28.825 161.589)">
	<path class="st0" d="M43.6,28.6c12.5-0.4,20.1-5.7,20.1-12c0-6.6-8.3-12-22.4-12h-2l4.1-4l-6.2,0L27.1,4.6H10.9
		C5.2,4.6,2.1,6,0.8,8.7h33.3c9.2,0,15.3,1.4,15.3,7.7c0,6.8-7.4,8.1-15.3,8.1H19.1l13.3,14.2c11.2,11.8,21.7,13.9,34.8,13.9
		L43.6,28.6z"/>
	<path class="st0" d="M151,40.2c-6.1,0-10.4-4.5-10.4-11.6c0-7,4.2-11.7,10.4-11.7c6.2,0,10.4,4.6,10.4,11.7S157.2,40.2,151,40.2
		 M151,14c-11.4,0-19,6-19,14.6c0,8.7,7.6,14.5,19,14.5c11.4,0,19-5.9,19-14.5C170,19.9,162.5,14,151,14"/>
	<path class="st0" d="M99.3,17.5c1.9-0.2,4.5-0.5,7.2-0.5c5,0,8,2,8,6.2c0,4.3-3,6.7-8,6.7h-7.2V17.5z M123.1,23.3
		c0-6.9-6.4-9.2-15.8-9.2c-4.9,0-9.2,0.6-15.7,0.8v27.5h7.7v-9.6h8c0.1,0,0.1,0,0.2,0l2.7,3.2c4.5,5.4,8,6.9,15,6.9h1l-10.3-11.1
		C120.5,30.5,123.1,27.8,123.1,23.3"/>
	<path class="st1" d="M260,14.7h7.7v27.7H260V14.7z"/>
	<g>
		<path class="st0" d="M306.9,14.7l-10.6,14.5l-10.5-14.5h-9.1l13.5,18.2v9.5h7.7v-9.5l13.3-18.2L306.9,14.7z"/>
		<path class="st0" d="M320.4,31.8l6.9-13.4l6.8,13.4H320.4z M339.5,42.4h8.6l-14.2-27.7h-4.6h-3.8h-0.5l-14.2,27.7h4.2l3.8-7.4h17
			L339.5,42.4z"/>
		<path class="st0" d="M224.6,21.1c0-2.2,2.6-4.2,7.8-4.2c8.8,0,13.3,3.4,13.3,3.4l1.6-4.2c0,0-6.5-2-14.5-2c-9.8,0-15.2,3-15.2,8.9
			c0,12.7,24.3,6.6,24.3,13.4c0,2.3-2.8,3.7-8.9,3.7c-8.3,0-14.6-3.3-14.6-3.3v4.5c0,0,6.4,2.1,15.1,2.1c9.7,0,15.3-2.3,15.3-8.8
			C248.9,21.8,224.6,27.2,224.6,21.1"/>
		<path class="st0" d="M185.8,21.1c0-2.2,2.6-4.2,7.8-4.2c8.8,0,13.3,3.4,13.3,3.4l1.6-4.2c0,0-6.5-2-14.5-2c-9.8,0-15.2,3-15.2,8.9
			c0,12.7,24.3,6.6,24.3,13.4c0,2.3-2.8,3.7-8.9,3.7c-8.3,0-14.6-3.3-14.6-3.3v4.5c0,0,6.4,2.1,15.1,2.1c9.7,0,15.3-2.3,15.3-8.8
			C210.1,21.8,185.8,27.2,185.8,21.1"/>
	</g>
</g>
</svg>
