<?xml version="1.0" encoding="utf-8"?>
<!-- Generator: Adobe Illustrator 19.2.1, SVG Export Plug-In . SVG Version: 6.00 Build 0)  -->
<svg width="170" version="1.1" id="layer" xmlns="http://www.w3.org/2000/svg" xmlns:xlink="http://www.w3.org/1999/xlink" x="0px" y="0px"
	 viewBox="0 0 652 652" style="enable-background:new 0 0 652 652;" xml:space="preserve">
<style type="text/css">
	.st0{fill:#BA0C2F;}
</style>
<path class="st0" d="M48.1,344.3c-10.5,0-24.3-2.7-20.5-14.4l7.5-23h12.6l-7,21.3c-1.5,4.6,1.8,7.6,10.2,7.6c8.4,0,13.6-3,15.1-7.6
	l7-21.3h12.5L78,330C74.2,341.5,58.9,344.3,48.1,344.3z M124.5,318.6c-0.9,2.6-3,3.5-4.9,3.5H99.7l2.2-6.7h19.7
	C123.9,315.4,125.2,316.5,124.5,318.6z M126.9,306.9H92.1l-12,36.8h12.6l4.3-13.1h9.5l6.9,13.1h16.4l-8.8-14.4l2.3,0
	c5.7,0,11.6-4.7,13.7-11.3C139.4,310.4,134.3,306.9,126.9,306.9z M158.2,329.3l11.5-12.6l3.2,12.6H158.2z M179.4,306.7h-12.7
	l-36.9,37.1h15.4l6-6.6h23.5l1.6,6.6H192L179.4,306.7z M194.6,343.7l12.1-36.8h12.5l-9.1,27.8h33.6l-6,8.9H194.6z M263.9,332.9h27.7
	l-6-23.8L263.9,332.9z M591.2,343.7c-7.7,0-14.4-0.7-19.8-2.1l2.4-3.5c4,1.3,10.3,3.1,20.4,3.1c7.8,0,19.8-2.2,21.9-8.1
	c1.7-4.9-9.6-5.3-18.6-6c-8-0.6-16.9-0.8-19.4-4.9c-0.2-0.4-0.9-1.4,0.1-4.4c2.1-6.5,14.5-11,30.2-11c7.2,0,14.1,0.7,18.7,1.9
	l-2.3,3.5c-4.7-1.8-11.8-2.8-19.3-2.8c-8.7,0-21.3,2-23,7.1c-0.5,1.4-0.5,2.4,0.2,3.6c1.8,2.8,10.2,2.3,18.7,2.4
	c9,0.2,19.1,0.6,20.6,4.7c0.1,0.4,1,1.8,0,4.8C619,341,603.5,343.7,591.2,343.7z M518.1,343.1l11.9-36h41.4l-0.9,2.7h-37.3
	l-4.1,12.6h37.3l-0.9,2.7h-37.3l-5,15.4h37.3l-0.9,2.7H518.1z M451.3,343.1l11.9-36.4l38,30.4l9.9-30h4.4l-12,36.4l-38.4-31
	l-9.5,30.6L451.3,343.1z M384.8,343.1l11.8-36h4.4l-10.5,32.1h34.7l-1.3,3.9H384.8z M338.6,324.5h27c4,0,8.8-2.5,10-6.3
	c0.8-2.6,3.1-7.8-7.9-7.8h-24.6L338.6,324.5z M360.3,343.1l-7.8-15.1h-14.9l-4.9,15.1h-4.4l11.6-36h31.9c3.9,0,6.7,0.8,8,2.5
	c0.9,1.3,2.4,4,1.5,6.6c-2,6.2-7,11.2-12.2,11.2h-12.4l9.9,15.7L360.3,343.1z M432.1,343.1l11.7-36h4.7l-11.8,36H432.1z
	 M307.6,343.1l11.8-36h4.7l-11.8,36H307.6z M294.1,343.1l-1.9-7.5h-30.5l-6.8,7.5h-5.7l32.9-36l7.6,0l9.6,35.9L294.1,343.1z"/>
</svg>
